<svg id="Layer_1" data-name="Layer 1" xmlns="http://www.w3.org/2000/svg" viewBox="0 0 1000 360"><defs><style>.cls-3{fill:#de4326}.cls-4{fill:#ff4113}.cls-5{fill:#ffff16}.cls-6{fill:#07b1aa}.cls-7{fill:#edc043}.cls-12{fill:#232e38}.cls-13{fill:#fff}</style></defs><path fill="#bd3011" d="M904 116.3l31-80.6 8.7 3.3-31.2 80.6-8.6-3.3"/><path fill="#fec013" d="M918.5 120.8l1.4-86.4 9.1.1-1.3 86.4-9.2-.1"/><path class="cls-3" d="M947.6 41.3l-9.1 11-5.3 13.7 13-8.5 8.5-10.4-7.1-5.8"/><path class="cls-4" d="M938.5 52.4l-9.9 12.1v4.6l4.6-3.1 5.3-13.6"/><path class="cls-5" d="M928.6 64.5l-8 9.7 8-5.1v-4.6"/><path class="cls-3" d="M914.3 89.3l-13 8.5-8.4 10.4 7.1 5.8 9.1-11 5.2-13.7"/><path class="cls-4" d="M919 86.3l-4.7 3-5.2 13.6 9.9-12v-4.6"/><path class="cls-5" d="M927 81.1l-8 5.2v4.5l8-9.7"/><path class="cls-6" d="M957.4 50.1l-11.2 7.4-17.8 21.8v.9l34-22.4-5-7.7"/><path class="cls-7" d="M928.4 79.3l-1.5 1.8 1.5-1v-.8"/><path class="cls-6" d="M919.2 75.1l-34 22.4 5 7.7 11.2-7.4L919.2 76V75"/><path class="cls-7" d="M920.7 74.2l-1.5 1v.8l1.5-1.8"/><path d="M919.2 76l-17.8 21.8 13-8.5 4.8-12.5V76m27-18.5l-13 8.5-4.8 12.6v.7l17.8-21.8" fill="#d6462c"/><path d="M919.2 76.8l-4.9 12.5 4.8-3 .1-9.5m14-10.8l-4.7 3-.2 9.6 5-12.6" fill="#d9502f"/><path fill="#f8f84e" d="M928.5 69l-7.8 5.2-1.5 1.8v.8l-.1 9.5 7.8-5.2 1.5-1.8v-.8l.1-9.4"/><path fill="#3284ff" d="M17.7 154.6h783.9v108H17.7z"/><path class="cls-12" d="M73 297.1c-.8 8.8-3.9 14.6-10.8 14.6-6.8 0-8.6-4.6-7-13 1-5 3.6-16.4 4.9-23h-5.4l.3-3c9-.1 10.8-4.2 14-14.2h2.2c-1 4.2-3 10.6-3.7 14.3l8.9-.3-.4 3.2h-9l-4.5 22.8c-1.5 7.7-.7 9.8 2 9.8 3.2 0 5.4-4 6.1-11.5zM121.2 297.1c-.8 6.8-3.9 14.6-11 14.6-6.3 0-8.3-4.3-6-13.2l2.7-10c2.6-9.9 1.3-13.3-2.6-13.3-5.7 0-11.4 7.3-14.9 24.7l-2.1 10.6-3.4-.1-3.3.1a1263 1263 0 0 0 9.8-49.2c.5-2.8.2-4.1-3-4.1h-3l.2-3.4c3.2.2 10.2.2 13.4 0a68.8 68.8 0 0 1-1.1 7.8L92.5 284c3.6-8.7 8.8-12.1 14.5-12.1 7.5 0 10 4.6 6.7 16.7l-2.5 9.6c-1.8 7.1-1.8 10.3 1.3 10.3 3.2 0 5.1-4.7 6.1-11.7zM156.6 299.9c-2.6 7.5-6.5 11.8-14.8 11.8-11.5 0-15.2-6.7-12.8-19.9 2.6-13.4 10.5-20 19.5-20 8.5 0 10.6 5.3 9.6 11.5-1.7 10-13.7 11.3-22.3 11-1.7 10.5.6 14.6 6.5 14.6 5.6 0 9.4-2.3 11.5-9.8zM152 284c1-4.6.3-9.3-4.2-9.3-5.2 0-8.7 3.6-11.5 17.7 10.3.2 14.2-1.3 15.7-8.4zM238.7 225.8c34.3-.2 60.9 23 61 57.2s-26.3 57.5-60.6 57.6-60.9-23-61-57.2 26.3-57.5 60.6-57.6zm.1 29.6c-16.1 0-26.6 12.4-26.5 28S222.9 311 239 311s26.6-12.4 26.5-28-10.5-27.7-26.7-27.6zM301.1 227.3l38.2-.1 24.2 74.7 23.7-74.9 38.2-.1L384.8 338l-42.3.1zM436.4 226.8l84.2-.3.1 28-50.6.2v13l49.5-.2v28l-49.4.2v14.1l50.7-.2.1 28-84.3.4zM586.7 301.6h-12.2l.2 35.7-33.7.2-.4-111.1 59.3-.3c26 0 40 17.2 40 38 .2 19.2-11 29.4-19.8 33.8l20.3 39.2-38.3.1zm8.1-47.5l-20.5.1.1 19.5H595c5.7 0 11-3.8 11-10 0-6-5.4-9.6-11-9.5zM658.5 226l33.6-.2.3 81.7 42.2-.1v29.3l-75.7.3zM824.6 322l-42.7.2-4.2 14.3-36.5.1 40.5-111.2 42.3-.2 41.4 111-36.5.1zm-34.1-27.8l25.3-.1L803 255zM876 225l59.3-.2c26 0 40 17.2 40.1 38 0 20.7-13.8 37.4-39.8 37.5h-25.7l.1 35.7-33.6.1zm55 27.8l-21.3.1v19.5l21.4-.1c5.6 0 10.1-3.9 10.1-9.7 0-6-4.5-9.8-10.2-9.8z"/><path class="cls-13" d="M68.6 205.7l-.6-4.9h-3.7l-.7 5h-3.7l4.2-25.1h4.4l4.2 25zm-2.3-18.4l-1.5 10.2h2.7zM88.7 195.8h-2.4v10h-4v-25.1h6.4c2.9 0 5 1.6 5 5v5c0 3.6-2.1 5.1-5 5.1zm1-10c0-1.1-.4-1.7-1.3-1.7h-2v8.5h2c1 0 1.4-.5 1.4-1.6zM103.1 206.2a5.7 5.7 0 0 1-6-6v-14a6 6 0 0 1 12 0v14a5.7 5.7 0 0 1-6 6zm2-20.3a2 2 0 1 0-3.9 0v14.6a2 2 0 1 0 4 0zM119.3 205.7h-6v-25h6c3.6 0 5.7 2.2 5.7 6v13.2c0 3.8-2 5.8-5.7 5.8zm1.7-19c0-1.7-.6-2.4-2-2.4h-1.8v17.9h1.9c1.3 0 2-.8 2-2.4zM135 206.2a5.8 5.8 0 0 1-6-6v-14a5.8 5.8 0 0 1 6-6c3.7 0 5.7 2.4 5.7 5.8v3.6h-3.5v-3.7a2 2 0 0 0-4.2 0v14.6a2 2 0 0 0 4.2 0v-3.7h3.5v3.7c0 3.3-2 5.7-5.7 5.7zM151.8 205.7l-.6-4.9h-3.7l-.7 5H143l4.2-25.1h4.4l4.2 25zm-2.3-18.4l-1.5 10.2h2.7zM164.2 206.2c-3.6 0-5.9-2.2-5.9-5.8v-2.2h3.7v2.2c0 1.5.7 2.4 2.1 2.4a2 2 0 0 0 2.1-2.2c0-2.2-1-3.8-3.2-6-2-2-4.5-5-4.5-8.2 0-3.4 2-6.2 5.9-6.2 3.3 0 5.5 2.4 5.5 5.8v2.3h-3.6V186c0-1.4-.6-2.3-2-2.3a1.9 1.9 0 0 0-2 2c0 2.4 1.2 3.6 3.5 6.1s4.3 5 4.3 8.2c0 4-2.6 6.2-5.9 6.2zM180.4 184.3v21.4h-4v-21.4h-3.9v-3.6h11.7v3.6zM201.5 205.7l-.6-4.9h-3.7l-.7 5h-3.7l4.2-25.1h4.4l4.2 25zm-2.3-18.4l-1.5 10.2h2.7zM215.3 205.7h-6.6v-25h6.5c2.8 0 4.8 1.4 4.8 4.8v3.7c0 1.9-.7 3.2-2.5 3.7a3.5 3.5 0 0 1 2.6 3.8v4.2c0 3.4-2.1 4.8-4.8 4.8zm.9-20c0-1-.5-1.6-1.4-1.6h-2v7.5h1.8c1 0 1.6-.6 1.6-1.8zm0 10.7c0-1.1-.6-1.8-1.6-1.8h-1.9v7.7h2.1c1 0 1.4-.5 1.4-1.6zM229.8 206.2a5.7 5.7 0 0 1-6-6v-14a6 6 0 0 1 12 0v14a5.7 5.7 0 0 1-6 6zm2-20.3a2 2 0 1 0-3.9 0v14.6a2 2 0 1 0 4 0zM245.8 206.2c-3.4 0-5.9-2.3-5.9-5.7v-19.8h4v20a2 2 0 1 0 3.8 0v-20h4v19.8a5.5 5.5 0 0 1-5.9 5.7zM262.7 184.3v21.4h-4v-21.4h-3.9v-3.6h11.7v3.6zM282.4 205.7h-6v-25h6c3.7 0 5.8 2.2 5.8 6v13.2c0 3.8-2.1 5.8-5.8 5.8zm1.8-19c0-1.7-.6-2.4-2-2.4h-1.9v17.9h1.9c1.4 0 2-.8 2-2.4zM292.3 205.7v-25h10v3.5h-6v7h4.2v3.3h-4.2v7.6h6v3.6zM311.2 206.2c-3.6 0-5.9-2.2-5.9-5.8v-2.2h3.7v2.2c0 1.5.7 2.4 2.1 2.4a2 2 0 0 0 2.1-2.2c0-2.2-1-3.8-3.2-6-2-2-4.5-5-4.5-8.2 0-3.4 2-6.2 5.9-6.2 3.3 0 5.5 2.4 5.5 5.8v2.3h-3.6V186c0-1.4-.7-2.3-2-2.3a1.9 1.9 0 0 0-1.9 2c0 2.4 1.1 3.6 3.4 6.1s4.3 5 4.3 8.2c0 4-2.6 6.2-6 6.2zM320.8 205.7v-25h4v25zM338.8 205.7l-.6-1.7a4 4 0 0 1-3.9 2.2c-3.3 0-5.4-2.4-5.4-5.8V186a5.7 5.7 0 0 1 6-5.8 5.5 5.5 0 0 1 5.8 5.8v3.4H337v-3.6a1.8 1.8 0 0 0-2-2 1.9 1.9 0 0 0-2 2v15a2 2 0 0 0 2 2 1.9 1.9 0 0 0 2-2v-4.6h-2v-3h5.8v12.6zM354 205.7l-4.1-11.3-1.4-3.9v15.2h-3.6v-25h3.5l4 11.5 1.2 3.8v-15.3h3.6v25zM373.7 194.3v3.5H371v-3.5h-3.2v-2.7h3.2v-3.4h2.7v3.4h3.3v2.7zM401.4 205.7H398l-2.1-14.9-2.3 15H390l-3.6-25.1h3.9l1.8 16.7 2.4-16.7h3l2.2 16.7 2-16.7h3.7zM408.4 205.7v-25h10v3.5h-6v7h4.2v3.3h-4.2v7.6h6v3.6zM428.7 205.7h-6.5v-25h6.5c2.7 0 4.8 1.4 4.8 4.8v3.7c0 1.9-.7 3.2-2.5 3.7a3.5 3.5 0 0 1 2.5 3.8v4.2c0 3.4-2 4.8-4.8 4.8zm1-20c0-1-.5-1.6-1.5-1.6h-2v7.5h2c1 0 1.5-.6 1.5-1.8zm0 10.7c0-1.1-.6-1.8-1.6-1.8h-1.9v7.7h2.1c1 0 1.4-.5 1.4-1.6zM450.2 205.7h-6v-25h6c3.6 0 5.7 2.2 5.7 6v13.2c0 3.8-2 5.8-5.7 5.8zm1.7-19c0-1.7-.6-2.4-2-2.4h-1.8v17.9h1.8c1.4 0 2-.8 2-2.4zM460 205.7v-25h10v3.5h-6v7h4.2v3.3h-4.1v7.6h6v3.6zM481 205.7h-3.9l-4.5-25h4l2.5 17.5 2.6-17.5h3.9zM488.7 205.7v-25h10v3.5h-6v7h4.2v3.3h-4.2v7.6h6v3.6zM502.4 205.7v-25h4V202h5.8v3.6zM521 206.2a5.7 5.7 0 0 1-6-6v-14a6 6 0 0 1 12 0v14a5.7 5.7 0 0 1-6 6zm2-20.3a2 2 0 1 0-4 0v14.6a2 2 0 1 0 4 0zM537.6 195.8H535v10h-4v-25.1h6.4c3 0 5 1.6 5 5v5c0 3.6-2 5.1-5 5.1zm1-10c0-1.1-.5-1.7-1.4-1.7h-2v8.5h2c1 0 1.4-.5 1.4-1.6zM558.8 205.7v-18.6l-.8 5.3-2.3 13.3h-3l-2.2-13.3-.8-5.3v18.6h-3.5v-25h5.4l2.2 12.7.6 4.8.7-4.8 2.2-12.7h5.3v25zM567 205.7v-25h10v3.5h-6v7h4.1v3.3H571v7.6h6v3.6zM589.9 205.7l-4.3-11.3-1.4-3.9v15.2h-3.6v-25h3.6l3.9 11.5 1.3 3.8v-15.3h3.5v25zM604 184.3v21.4h-4v-21.4h-3.8v-3.6h11.7v3.6z"/></svg>