<svg xmlns="http://www.w3.org/2000/svg" viewBox="0 0 961.32 321.97"><defs><style>.cls-1{fill:#fec013;}.cls-2{fill:#c04327;}.cls-3{fill:#ffd402;}.cls-4{fill:#dd4226;}.cls-5{fill:#f04d23;}.cls-6{fill:#ffe700;}.cls-7{fill:#10b2ab;}.cls-8{fill:#ecbb54;}.cls-9{fill:#f2ce5a;}.cls-10{fill:#c64f34;}.cls-11{fill:#f1cb59;}.cls-12{fill:#cf5a38;}.cls-13{fill:#f8e060;}.cls-14{fill:#232e38;}.cls-15{fill:#fff;}</style></defs><title>Asset 3</title><g id="Layer_2" data-name="Layer 2"><g id="Layer_1-2" data-name="Layer 1"><rect class="cls-1" y="135.95" width="783.87" height="107.97"/><polyline class="cls-1" points="892.73 134.89 894.78 0 909.15 0.22 907.1 135.11 892.73 134.89"/><path class="cls-2" d="M893.44,88.09,878,107l-8.07,20.9,13.4,5.18,9.82-25.4.29-19.58M918.55,2l-9.81,25.4L908.44,47l15.44-18.9L932,7.22,918.55,2"/><path class="cls-3" d="M906.81,72.3l-1,.66L893.44,88.09l-.29,19.58L906.81,72.3m1.93-44.86L895.07,62.81l1-.66L908.44,47l.3-19.58"/><polyline class="cls-4" points="938.05 10.77 923.88 28.12 915.69 49.32 935.95 36.06 949.18 19.86 938.05 10.77"/><polyline class="cls-5" points="923.88 28.12 908.44 47.02 908.33 54.13 915.69 49.32 923.88 28.12"/><polyline class="cls-6" points="908.44 47.02 896.08 62.15 908.33 54.13 908.44 47.02"/><polyline class="cls-4" points="886.19 85.79 865.93 99.05 852.7 115.25 863.83 124.34 878 106.99 886.19 85.79"/><polyline class="cls-5" points="893.55 80.98 886.19 85.79 878 106.99 893.44 88.09 893.55 80.98"/><polyline class="cls-6" points="905.8 72.96 893.55 80.98 893.44 88.09 905.8 72.96"/><polyline class="cls-7" points="953.45 24.61 935.95 36.06 908.09 70.17 908.07 71.48 961.32 36.64 953.45 24.61"/><polyline class="cls-8" points="908.09 70.17 907.23 71.21 906.81 72.3 908.07 71.48 908.09 70.17"/><polyline class="cls-9" points="907.23 71.21 905.8 72.96 906.81 72.3 907.23 71.21"/><polyline class="cls-7" points="893.81 63.63 840.56 98.47 848.43 110.5 865.93 99.05 893.79 64.95 893.81 63.63"/><polyline class="cls-8" points="895.07 62.81 893.81 63.63 893.79 64.95 894.65 63.9 895.07 62.81"/><polyline class="cls-9" points="896.08 62.15 895.07 62.81 894.65 63.9 896.08 62.15"/><path class="cls-10" d="M893.79,65l-27.86,34.1,20.26-13.26,7.59-19.63V65M936,36.06,915.69,49.32,908.11,69l0,1.22L936,36.06"/><path class="cls-11" d="M908.11,69l-.88,2.26.86-1,0-1.22M894.65,63.9,893.79,65v1.21l.87-2.26"/><path class="cls-12" d="M893.78,66.16l-7.59,19.63L893.55,81l.23-14.82m21.91-16.84-7.36,4.81L908.11,69l7.58-19.63"/><polyline class="cls-13" points="908.33 54.13 896.08 62.15 894.65 63.9 893.77 66.16 893.55 80.98 905.8 72.96 907.23 71.21 908.11 68.95 908.33 54.13"/><path class="cls-14" d="M55.31,278.46c-.82,8.78-3.85,14.6-10.83,14.6-6.81,0-8.61-4.68-7-13,1-5.09,3.61-16.41,4.92-23.06H37l.33-3c8.94-.08,10.74-4.19,13.86-14.2h2.3c-1.07,4.19-2.95,10.59-3.69,14.28l8.86-.24L58.27,257l-9-.08-4.51,22.89c-1.48,7.63-.66,9.77,2.05,9.77,3.12,0,5.34-4,6.07-11.49Z"/><path class="cls-14" d="M103.47,278.46c-.73,6.81-3.85,14.6-10.91,14.6-6.4,0-8.37-4.35-6-13.21l2.63-10c2.62-9.93,1.31-13.37-2.55-13.37-5.74,0-11.48,7.3-14.93,24.69l-2.13,10.67s-2.22-.16-3.37-.16-3.28.16-3.28.16c2.63-11.81,7.8-37.33,9.77-49.23.49-2.79.16-4.1-3-4.1h-3l.24-3.36c3.2.16,10.18.16,13.38,0a68.79,68.79,0,0,1-1.15,7.79l-4.43,22.4c3.61-8.7,8.86-12.14,14.52-12.14,7.55,0,9.93,4.67,6.73,16.73l-2.55,9.6c-1.8,7.14-1.72,10.26,1.32,10.26,3.2,0,5.17-4.68,6.15-11.65Z"/><path class="cls-14" d="M138.91,281.16c-2.62,7.55-6.56,11.9-14.77,11.9-11.56,0-15.26-6.73-12.79-19.94,2.54-13.37,10.42-19.93,19.44-19.93,8.53,0,10.59,5.25,9.6,11.4-1.72,10.09-13.7,11.32-22.23,11.08-1.73,10.5.57,14.52,6.48,14.52,5.58,0,9.35-2.3,11.48-9.76Zm-4.67-15.83c1-4.6.24-9.35-4.19-9.35-5.25,0-8.78,3.61-11.57,17.8C128.82,273.94,132.68,272.39,134.24,265.33Z"/><path class="cls-14" d="M221,207.07c34.3-.13,60.87,23.08,61,57.21S255.74,321.84,221.44,322s-60.87-23.07-61-57.21S186.68,207.21,221,207.07Zm.12,29.65c-16.15.06-26.6,12.42-26.53,27.91s10.6,27.77,26.75,27.7,26.59-12.43,26.53-27.91S237.25,236.65,221.1,236.72Z"/><path class="cls-14" d="M283.44,208.66l38.13-.15,24.27,74.67,23.68-74.86,38.14-.15L367.14,319.4l-42.3.16Z"/><path class="cls-14" d="M418.65,208.12l84.26-.33.11,28-50.62.2.05,13,49.45-.19.11,28-49.45.2.06,14.15,50.62-.2.11,28-84.26.34Z"/><path class="cls-14" d="M569,283l-12.15.05.14,35.63-33.64.14-.44-111.07,59.28-.24c26-.1,40,17.16,40.12,38,.07,19.15-11,29.35-19.85,33.71l20.3,39.22-38.3.15Zm8.14-47.49-20.48.08.08,19.48L577.2,255c5.66,0,11-3.71,10.95-9.87C588.12,239.09,582.78,235.45,577.12,235.47Z"/><path class="cls-14" d="M640.79,207.24l33.63-.13.33,81.76,42.13-.17L717,318l-75.76.3Z"/><path class="cls-14" d="M806.86,303.33l-42.63.17L760,317.84l-36.47.14L764,206.75l42.3-.17,41.4,110.91-36.47.14Zm-34.08-27.84,25.31-.1-12.81-39.08Z"/><path class="cls-14" d="M858.26,206.38l59.28-.24c26-.1,40,17.16,40.12,38,.08,20.64-13.84,37.35-39.82,37.45l-25.64.11.14,35.63-33.64.13Zm55.06,27.75-21.31.09.08,19.48,21.31-.08c5.66,0,10.14-3.87,10.12-9.7C923.5,237.92,919,234.11,913.32,234.13Z"/><path class="cls-15" d="M50.91,187.05l-.64-4.89H46.62l-.75,4.89H42.22L46.39,162H50.8L55,187.05Zm-2.33-18.47-1.47,10.23h2.71Z"/><path class="cls-15" d="M71,177.16H68.63v9.89h-4V162H71c2.86,0,4.89,1.58,4.89,5.08v5.05C75.93,175.58,73.9,177.16,71,177.16Zm1-10.09c0-1.09-.41-1.65-1.35-1.65H68.63V174H70.7c.94,0,1.35-.56,1.35-1.66Z"/><path class="cls-15" d="M85.41,187.51a5.67,5.67,0,0,1-6-5.95V167.49a6,6,0,0,1,12,0v14.07A5.66,5.66,0,0,1,85.41,187.51Zm2-20.32a2,2,0,1,0-3.92,0v14.67a2,2,0,1,0,3.92,0Z"/><path class="cls-15" d="M101.62,187.05H95.53V162h6.09c3.62,0,5.72,2.26,5.72,6v13.24C107.34,185,105.24,187.05,101.62,187.05Zm1.73-19.11c0-1.58-.6-2.37-2-2.37H99.52v18h1.84c1.39,0,2-.83,2-2.37Z"/><path class="cls-15" d="M117.27,187.51a5.76,5.76,0,0,1-6-6v-14a5.76,5.76,0,0,1,6-6c3.69,0,5.69,2.41,5.69,5.76v3.61h-3.54v-3.69a2.07,2.07,0,0,0-4.14,0v14.67a2.07,2.07,0,0,0,4.14,0V178.1H123v3.65C123,185.1,121,187.51,117.27,187.51Z"/><path class="cls-15" d="M134.13,187.05l-.64-4.89h-3.65l-.75,4.89h-3.65L129.61,162H134l4.17,25.06Zm-2.33-18.47-1.47,10.23H133Z"/><path class="cls-15" d="M146.51,187.51c-3.62,0-5.87-2.22-5.87-5.76v-2.22h3.65v2.14c0,1.58.71,2.49,2.1,2.49a2,2,0,0,0,2.11-2.26c0-2.18-1.09-3.8-3.2-6-2.07-2.07-4.48-5-4.48-8.2,0-3.39,2-6.14,5.84-6.14,3.35,0,5.53,2.34,5.53,5.76v2.26h-3.61V167.3c0-1.39-.64-2.33-1.92-2.33a1.86,1.86,0,0,0-2,2c0,2.44,1.09,3.65,3.42,6.13s4.26,5,4.26,8.2C152.38,185.32,149.78,187.51,146.51,187.51Z"/><path class="cls-15" d="M162.72,165.64v21.41h-4V165.64h-3.87V162h11.66v3.65Z"/><path class="cls-15" d="M183.83,187.05l-.64-4.89h-3.65l-.75,4.89h-3.66L179.31,162h4.4l4.18,25.06Zm-2.34-18.47L180,178.81h2.71Z"/><path class="cls-15" d="M197.56,187.05H191V162h6.47c2.79,0,4.82,1.47,4.82,4.86v3.65c0,1.88-.72,3.23-2.48,3.76a3.52,3.52,0,0,1,2.55,3.76v4.18C202.37,185.62,200.3,187.05,197.56,187.05Zm.9-20c0-1.06-.45-1.62-1.39-1.62h-2v7.45h1.88c1,0,1.54-.57,1.54-1.73Zm0,10.64c0-1.12-.57-1.76-1.54-1.76H195v7.71h2.1c1,0,1.36-.56,1.36-1.62Z"/><path class="cls-15" d="M212.16,187.51a5.66,5.66,0,0,1-6-5.95V167.49a6,6,0,0,1,12,0v14.07A5.66,5.66,0,0,1,212.16,187.51Zm2-20.32a2,2,0,1,0-3.91,0v14.67a2,2,0,1,0,3.91,0Z"/><path class="cls-15" d="M228.11,187.51c-3.39,0-5.91-2.26-5.91-5.65V162h4v19.95a1.92,1.92,0,1,0,3.84,0V162h3.88v19.87A5.49,5.49,0,0,1,228.11,187.51Z"/><path class="cls-15" d="M245,165.64v21.41h-4V165.64h-3.88V162H248.8v3.65Z"/><path class="cls-15" d="M264.75,187.05h-6.1V162h6.1c3.61,0,5.72,2.26,5.72,6v13.24C270.47,185,268.36,187.05,264.75,187.05Zm1.73-19.11c0-1.58-.6-2.37-2-2.37h-1.85v18h1.85c1.39,0,2-.83,2-2.37Z"/><path class="cls-15" d="M274.61,187.05V162h10v3.54h-6v6.92h4.18v3.32h-4.18v7.63h6v3.65Z"/><path class="cls-15" d="M293.49,187.51c-3.61,0-5.87-2.22-5.87-5.76v-2.22h3.65v2.14c0,1.58.72,2.49,2.11,2.49a2,2,0,0,0,2.11-2.26c0-2.18-1.09-3.8-3.2-6-2.07-2.07-4.48-5-4.48-8.2,0-3.39,2-6.14,5.83-6.14,3.35,0,5.53,2.34,5.53,5.76v2.26h-3.61V167.3c0-1.39-.64-2.33-1.92-2.33a1.85,1.85,0,0,0-1.95,2c0,2.44,1.09,3.65,3.42,6.13s4.25,5,4.25,8.2C299.36,185.32,296.77,187.51,293.49,187.51Z"/><path class="cls-15" d="M303.12,187.05V162h4v25.06Z"/><path class="cls-15" d="M321.07,187.05l-.6-1.69a4,4,0,0,1-3.84,2.15c-3.31,0-5.38-2.37-5.38-5.76V167.3a5.71,5.71,0,0,1,6-5.76A5.45,5.45,0,0,1,323,167.3v3.35h-3.77v-3.58a1.81,1.81,0,0,0-2-1.91,1.86,1.86,0,0,0-2,2V182a2,2,0,0,0,4.06,0v-4.48h-2v-3h5.84v12.53Z"/><path class="cls-15" d="M336.38,187.05l-4.21-11.36-1.39-3.84v15.2h-3.62V162h3.54l3.91,11.48,1.28,3.88V162h3.58v25.06Z"/><path class="cls-15" d="M356,175.62v3.46h-2.71v-3.46h-3.24v-2.71h3.24v-3.43H356v3.43h3.24v2.71Z"/><path class="cls-15" d="M383.71,187.05h-3.54l-2.07-14.9-2.29,14.9h-3.5L368.66,162h3.95l1.81,16.75L376.79,162h3.08L382,178.74,384,162h3.69Z"/><path class="cls-15" d="M390.74,187.05V162h10v3.54h-6v6.92h4.18v3.32h-4.18v7.63h6v3.65Z"/><path class="cls-15" d="M411,187.05h-6.55V162H411c2.78,0,4.81,1.47,4.81,4.86v3.65c0,1.88-.71,3.23-2.48,3.76a3.52,3.52,0,0,1,2.56,3.76v4.18C415.84,185.62,413.77,187.05,411,187.05Zm.9-20c0-1.06-.45-1.62-1.39-1.62h-2v7.45h1.88c1,0,1.54-.57,1.54-1.73Zm0,10.64c0-1.12-.56-1.76-1.54-1.76H408.5v7.71h2.11c.94,0,1.35-.56,1.35-1.62Z"/><path class="cls-15" d="M432.5,187.05h-6.09V162h6.09c3.62,0,5.72,2.26,5.72,6v13.24C438.22,185,436.12,187.05,432.5,187.05Zm1.73-19.11c0-1.58-.6-2.37-2-2.37H430.4v18h1.84c1.39,0,2-.83,2-2.37Z"/><path class="cls-15" d="M442.36,187.05V162h10v3.54h-6v6.92h4.17v3.32h-4.17v7.63h6v3.65Z"/><path class="cls-15" d="M463.28,187.05H459.4L454.89,162H459l2.44,17.54L464,162h3.84Z"/><path class="cls-15" d="M471,187.05V162h10v3.54h-6v6.92h4.17v3.32H475v7.63h6v3.65Z"/><path class="cls-15" d="M484.72,187.05V162h4v21.45h5.76v3.61Z"/><path class="cls-15" d="M503.34,187.51a5.66,5.66,0,0,1-6-5.95V167.49a6,6,0,0,1,12,0v14.07A5.66,5.66,0,0,1,503.34,187.51Zm2-20.32a2,2,0,1,0-3.91,0v14.67a2,2,0,1,0,3.91,0Z"/><path class="cls-15" d="M519.86,177.16h-2.41v9.89h-4V162h6.39c2.86,0,4.89,1.58,4.89,5.08v5.05C524.75,175.58,522.72,177.16,519.86,177.16Zm1-10.09c0-1.09-.42-1.65-1.36-1.65h-2.07V174h2.07c.94,0,1.36-.56,1.36-1.66Z"/><path class="cls-15" d="M541.12,187.05V168.43l-.79,5.27L538,187.05h-3l-2.23-13.35-.75-5.27v18.62h-3.53V162h5.38L536,174.67l.68,4.86.71-4.86L539.58,162h5.3v25.06Z"/><path class="cls-15" d="M549.24,187.05V162h10v3.54h-6v6.92h4.18v3.32h-4.18v7.63h6v3.65Z"/><path class="cls-15" d="M572.16,187.05l-4.22-11.36-1.39-3.84v15.2h-3.61V162h3.53l3.92,11.48,1.28,3.88V162h3.57v25.06Z"/><path class="cls-15" d="M586.38,165.64v21.41h-4V165.64h-3.88V162h11.67v3.65Z"/></g></g></svg>