<svg xmlns="http://www.w3.org/2000/svg" width="337.7" height="161.2"><style>.st3{fill:#ea1b00}.st4{fill:#ff2600}.st5{fill:#fff308}.st6{fill:#41aa8f}.st7{fill:#ebb632}.st8{fill:#f1d039}.st13{fill:#161721}</style><path fill="#ffbd06" d="M62 160.4L64.5 0l17 .3-2.4 160.3-17.1-.2"/><path d="M62.9 104.7l-18.4 22.5-9.6 24.8 15.9 6.2L62.5 128l.4-23.3M92.7 2.4L81.1 32.6l-.4 23.3 18.4-22.5 9.6-24.8-16-6.2" fill="#c21d01"/><path d="M78.8 86l-1.2.8-14.7 18-.4 23.2 16.3-42m2.3-53.4L64.8 74.7l1.2-.8 14.7-18 .4-23.3" fill="#ffd907"/><path class="st3" d="M115.9 12.8L99.1 33.4l-9.8 25.2 24.1-15.7 15.7-19.3-13.2-10.8"/><path class="st4" d="M99.1 33.4L80.7 55.9l-.1 8.5 8.7-5.8 9.8-25.2"/><path class="st5" d="M80.7 55.9L66 73.9l14.6-9.5.1-8.5"/><path class="st3" d="M54.2 102l-24 15.8L14.4 137l13.3 10.8 16.8-20.6 9.7-25.2"/><path class="st4" d="M63 96.3l-8.8 5.7-9.7 25.2 18.4-22.5.1-8.4"/><path class="st5" d="M77.6 86.7L63 96.3l-.1 8.4 14.7-18"/><path class="st6" d="M134.2 29.3l-20.8 13.6-33.1 40.5V85l63.3-41.4-9.4-14.3"/><path class="st7" d="M80.3 83.4l-1 1.3-.5 1.3 1.5-1v-1.6"/><path class="st8" d="M79.3 84.7l-1.7 2 1.2-.7.5-1.3"/><path class="st6" d="M63.3 75.7L0 117.1l9.4 14.3 20.8-13.6 33.1-40.6v-1.5"/><path class="st7" d="M64.8 74.7l-1.5 1v1.5l1-1.2.5-1.3"/><path class="st8" d="M66 73.9l-1.2.8-.5 1.3 1.7-2.1"/><path d="M63.3 77.2l-33.1 40.5 24-15.7 9-23.3.1-1.5m50.1-34.3L89.3 58.6l-9 23.3v1.4l33.1-40.4" fill="#c7270e"/><path d="M80.3 82l-1 2.7 1-1.2V82m-16-6l-1 1.2v1.4l1-2.6" fill="#f0cc38"/><path d="M63.3 78.7l-9 23.3 8.8-5.7.2-17.6m26-20.1l-8.8 5.7-.2 17.7 9-23.4" fill="#d03213"/><path fill="#f5e83f" d="M80.6 64.4L66 73.9 64.3 76l-1 2.7-.3 17.6 14.6-9.6 1.7-2 1-2.7.3-17.6"/><path class="st13" d="M93 97.7c3.4-.1 6.1-2.2 6.1-8.5v-.8h2v9.3h6.4v2h-6.4v12.8c0 1.4.4 3.1 2.3 3.1 1 0 3.2-.4 3.2-5.6v-1h2v1c0 6.3-2.7 8.7-6.1 8.7-4.3 0-5.3-3.5-5.3-6.5V99.7H93v-2zM121.7 101.2c1.4-2.9 3.9-4.2 7-4.2 5.7 0 6 5.4 6 7.2v10.5c0 1.4.7 1.4 1.6 1.4h2v2H128v-2h1.3c.9 0 1.6 0 1.6-1.4v-10.4c0-4.7-2.2-5.3-3.6-5.3-4.8 0-5.5 7-5.5 8.1v7.6c0 1.4.7 1.4 1.6 1.4h1.3v2h-10.2v-2h2c.9 0 1.6 0 1.6-1.4V90.3c0-.9-.2-1.4-1.1-1.4h-2.4v-2l7.4-.6V99l-.2 2.3h-.1zM160.6 113.1c-2.2 5.2-6.3 5.6-8.7 5.6-6.3 0-9.4-5.2-9.4-10.8 0-6.3 4-10.8 9.6-10.8 5.9 0 9 4.8 9 10.2v1h-13.9c0 6.1 2.6 8.5 5.3 8.5 1.7 0 4.5-.5 6.4-4.6l1.7.9zm-4.8-6.8c.7 0 .8-.6.8-.9v-.9c-.1-2-1.2-5.5-4.5-5.5-2.2 0-4.7 2.2-4.9 7.3h8.6zM111.2 125.8c10.5 0 18.7 7.1 18.8 17.6 0 10.5-8.1 17.7-18.6 17.7-10.5 0-18.7-7.1-18.8-17.6-.1-10.4 8-17.6 18.6-17.7zm0 9.2c-5 0-8.2 3.8-8.2 8.6s3.3 8.5 8.2 8.5c5 0 8.2-3.8 8.2-8.6s-3.2-8.6-8.2-8.5zM130.4 126.3h11.7l7.5 23 7.3-23.1h11.7l-12.5 34.2h-13zM172 126.2l25.9-.1v8.6h-15.6l.1 4h15.2v8.6h-15.2v4.4l15.6-.1v8.6l-25.9.1zM218.2 149.2h-3.7v11h-10.3L204 126l18.2-.1c8 0 12.3 5.3 12.3 11.7 0 5.9-3.4 9-6.1 10.4l6.2 12.1h-11.8l-4.6-10.9zm2.5-14.6h-6.3v6h6.3c1.7 0 3.4-1.1 3.4-3s-1.7-3-3.4-3zM240.3 125.9h10.3l.1 25.1h13v9l-23.3.1zM291.3 155.4l-13.1.1-1.3 4.4h-11.2l12.5-34.2 13-.1 12.7 34.1h-11.2l-1.4-4.3zm-10.4-8.5h7.8l-3.9-12-3.9 12zM307.1 125.6l18.2-.1c8 0 12.3 5.3 12.3 11.7 0 6.4-4.3 11.5-12.2 11.5h-7.9v11h-10.3l-.1-34.1zm17 8.6h-6.6v6h6.6c1.7 0 3.1-1.2 3.1-3 0-1.9-1.4-3-3.1-3z"/></svg>