<?xml version="1.0" encoding="utf-8"?>
<!-- Generator: Adobe Illustrator 23.0.1, SVG Export Plug-In . SVG Version: 6.00 Build 0)  -->
<svg version="1.1" id="Layer_1" xmlns="http://www.w3.org/2000/svg" xmlns:xlink="http://www.w3.org/1999/xlink" x="0px" y="0px"
	 viewBox="0 0 345.2 152" style="enable-background:new 0 0 345.2 152;" xml:space="preserve">
<style type="text/css">
	.st0{fill:#FFBD06;}
	.st1{fill:#C21D01;}
	.st2{fill:#FFD907;}
	.st3{fill:#EA1B00;}
	.st4{fill:#FF2600;}
	.st5{fill:#FFF308;}
	.st6{fill:#41AA8F;}
	.st7{fill:#EBB632;}
	.st8{fill:#F1D039;}
	.st9{fill:#C7270E;}
	.st10{fill:#F0CC38;}
	.st11{fill:#D03213;}
	.st12{fill:#F5E83F;}
	.st13{fill:#161721;}
</style>
<title>Overlap Logo</title>
<polyline class="st0" points="52,134.5 54,0 68.4,0.2 66.3,134.7 52,134.5 "/>
<path class="st1" d="M52.7,87.8l-15.4,18.8l-8,20.8l13.4,5.2l9.8-25.3L52.7,87.8 M77.8,2L68,27.4l-0.3,19.5L83.1,28l8.1-20.8L77.8,2
	"/>
<path class="st2" d="M66.1,72.1l-1,0.7l-12.4,15l-0.3,19.5L66.1,72.1 M68,27.4L54.3,62.6l1-0.7l12.3-15.1L68,27.4"/>
<polyline class="st3" points="97.2,10.7 83.1,28 74.9,49.2 95.1,36 108.3,19.8 97.2,10.7 "/>
<polyline class="st4" points="83.1,28 67.7,46.9 67.6,54 74.9,49.2 83.1,28 "/>
<polyline class="st5" points="67.7,46.9 55.3,62 67.6,54 67.7,46.9 "/>
<polyline class="st3" points="45.5,85.5 25.3,98.8 12.1,114.9 23.2,124 37.3,106.7 45.5,85.5 "/>
<polyline class="st4" points="52.8,80.7 45.5,85.5 37.3,106.7 52.7,87.8 52.8,80.7 "/>
<polyline class="st5" points="65.1,72.7 52.8,80.7 52.7,87.8 65.1,72.7 "/>
<polyline class="st6" points="112.6,24.5 95.1,36 67.3,69.9 67.3,71.3 120.4,36.5 112.6,24.5 "/>
<polyline class="st7" points="67.3,69.9 66.5,71 66.1,72.1 67.3,71.3 67.3,69.9 "/>
<polyline class="st8" points="66.5,71 65.1,72.7 66.1,72.1 66.5,71 "/>
<polyline class="st6" points="53.1,63.4 0,98.2 7.8,110.2 25.3,98.8 53.1,64.8 53.1,63.4 "/>
<polyline class="st7" points="54.3,62.6 53.1,63.4 53.1,64.8 53.9,63.7 54.3,62.6 "/>
<polyline class="st8" points="55.3,62 54.3,62.6 53.9,63.7 55.3,62 "/>
<path class="st9" d="M53.1,64.8l-27.8,34l20.2-13.2L53,66L53.1,64.8 M95.1,36L74.9,49.2l-7.6,19.6V70L95.1,36"/>
<path class="st10" d="M67.3,68.7L66.5,71l0.8-1V68.7 M53.9,63.8l-0.9,1V66L53.9,63.8"/>
<path class="st11" d="M53,66l-7.6,19.5l7.3-4.8L53,66 M74.9,49.2L67.6,54l-0.2,14.8L74.9,49.2"/>
<polyline class="st12" points="67.6,54 55.3,62 53.9,63.7 53,66 52.8,80.7 65.1,72.7 66.5,71 67.3,68.7 67.6,54 "/>
<path class="st13" d="M98.8,99.2c-0.5,5-2.2,8.4-6.2,8.4s-5-2.7-4.1-7.4c0.6-2.9,2.1-9.4,2.8-13.3h-3.1l0.2-1.7c5.1,0,6.2-2.4,8-8.2
	h1.3c-0.6,2.4-1.7,6.1-2.1,8.2l5.1-0.1l-0.2,1.8h-5.2L92.7,100c-0.8,4.4-0.4,5.6,1.2,5.6c1.8,0,3.1-2.3,3.5-6.6L98.8,99.2z"/>
<path class="st13" d="M126.4,99.2c-0.4,3.9-2.2,8.4-6.3,8.4c-3.7,0-4.8-2.5-3.4-7.6l1.5-5.8c1.5-5.7,0.8-7.7-1.5-7.7
	c-3.3,0-6.6,4.2-8.6,14.2l-1.2,6.1c0,0-1.3-0.1-1.9-0.1s-1.9,0.1-1.9,0.1c1.5-6.8,4.5-21.5,5.6-28.3c0.3-1.6,0.1-2.4-1.7-2.4h-1.7
	l0.1-1.9c1.8,0.1,5.8,0.1,7.7,0c-0.1,1.5-0.3,3-0.7,4.5L110,91.6c2.1-5,5.1-7,8.3-7c4.3,0,5.7,2.7,3.9,9.6l-1.5,5.5
	c-1,4.1-1,5.9,0.8,5.9s3-2.7,3.5-6.7L126.4,99.2z"/>
<path class="st13" d="M146.8,100.7c-1.5,4.3-3.8,6.8-8.5,6.8c-6.6,0-8.8-3.9-7.4-11.5s6-11.5,11.2-11.5c4.9,0,6.1,3,5.5,6.6
	c-1,5.8-7.9,6.5-12.8,6.4c-1,6,0.3,8.3,3.7,8.3c3.2,0,5.4-1.3,6.6-5.6L146.8,100.7z M144.1,91.6c0.6-2.6,0.1-5.4-2.4-5.4
	c-3,0-5,2.1-6.6,10.2C141,96.6,143.2,95.7,144.1,91.6z"/>
<path class="st13" d="M106.9,114.9c11.1,0,19.7,7.5,19.7,18.5s-8.5,18.6-19.6,18.7s-19.7-7.5-19.7-18.5S95.8,114.9,106.9,114.9z
	 M106.9,124.5c-5.2,0-8.6,4-8.6,9s3.4,9,8.7,9s8.6-4,8.6-9S112.2,124.4,106.9,124.5L106.9,124.5z"/>
<path class="st13" d="M127.1,115.4l12.3-0.1l7.9,24.2l7.7-24.2l12.3-0.1l-13.1,36l-13.7,0.1L127.1,115.4z"/>
<path class="st13" d="M170.9,115.2l27.3-0.1v9.1l-16.4,0.1v4.2l16-0.1v9l-16,0.1v4.6l16.4-0.1v9.1l-27.3,0.1V115.2z"/>
<path class="st13" d="M219.5,139.4h-3.9l0.1,11.5l-10.9,0.1l-0.1-35.9l19.2-0.1c8.4,0,13,5.6,13,12.3c0.2,4.6-2.3,8.9-6.4,10.9
	l6.6,12.7h-12.4L219.5,139.4z M222.1,124.1h-6.6v6.3h6.6c1.7,0.2,3.3-1.1,3.5-2.8s-1.1-3.3-2.8-3.5C222.6,124,222.4,124,222.1,124.1
	L222.1,124.1z"/>
<path class="st13" d="M242.7,114.9h10.9l0.1,26.5l13.6-0.1v9.5l-24.5,0.1L242.7,114.9z"/>
<path class="st13" d="M296.5,146l-13.8,0.1l-1.4,4.6l-11.8,0.1l13.1-36l13.7-0.1l13.4,35.9h-11.8L296.5,146z M285.5,137h8.2
	l-4.1-12.7L285.5,137z"/>
<path class="st13" d="M313.1,114.7l19.2-0.1c8.4,0,13,5.6,13,12.3s-4.5,12.1-12.9,12.1h-8.3v11.5h-10.9L313.1,114.7z M330.9,123.7
	H324v6.3h6.9c1.7,0,3.1-1.4,3.1-3.2C334.1,125.1,332.6,123.7,330.9,123.7L330.9,123.7z"/>
</svg>
