<svg xmlns="http://www.w3.org/2000/svg" viewBox="0 0 345.25 199.24"><defs><style>.cls-1{fill:#ffbd06;}.cls-2{fill:#c21d01;}.cls-3{fill:#ffd907;}.cls-4{fill:#ea1b00;}.cls-5{fill:#ff2600;}.cls-6{fill:#fff308;}.cls-7{fill:#41aa8f;}.cls-8{fill:#ebb632;}.cls-9{fill:#f1d039;}.cls-10{fill:#c7270e;}.cls-11{fill:#f0cc38;}.cls-12{fill:#d03213;}.cls-13{fill:#f5e83f;}.cls-14{fill:#161721;}</style></defs><title>Overlap Logo</title><g id="Layer_2" data-name="Layer 2"><g id="Layer_1-2" data-name="Layer 1"><polyline class="cls-1" points="52.01 134.49 54.05 0 68.38 0.22 66.34 134.7 52.01 134.49"/><path class="cls-2" d="M52.72,87.83,37.33,106.67l-8,20.83,13.36,5.17,9.79-25.32.29-19.52M77.75,2,68,27.36l-.3,19.52L83.07,28,91.12,7.2,77.75,2"/><path class="cls-3" d="M66.05,72.08l-1,.66L52.72,87.83l-.29,19.52L66.05,72.08M68,27.36,54.35,62.62l1-.66L67.67,46.88,68,27.36"/><polyline class="cls-4" points="97.2 10.74 83.07 28.04 74.9 49.17 95.1 35.95 108.3 19.8 97.2 10.74"/><polyline class="cls-5" points="83.07 28.04 67.67 46.88 67.57 53.97 74.9 49.17 83.07 28.04"/><polyline class="cls-6" points="67.67 46.88 55.35 61.96 67.57 53.97 67.67 46.88"/><polyline class="cls-4" points="45.49 85.54 25.29 98.75 12.1 114.9 23.2 123.96 37.33 106.67 45.49 85.54"/><polyline class="cls-5" points="52.83 80.73 45.49 85.54 37.33 106.67 52.72 87.83 52.83 80.73"/><polyline class="cls-6" points="65.05 72.74 52.83 80.73 52.72 87.83 65.05 72.74"/><polyline class="cls-7" points="112.55 24.54 95.1 35.95 67.32 69.95 67.3 71.26 120.39 36.52 112.55 24.54"/><polyline class="cls-8" points="67.32 69.95 66.47 71 66.05 72.08 67.3 71.26 67.32 69.95"/><polyline class="cls-9" points="66.47 71 65.05 72.74 66.05 72.08 66.47 71"/><polyline class="cls-7" points="53.09 63.44 0 98.18 7.84 110.17 25.29 98.75 53.07 64.75 53.09 63.44"/><polyline class="cls-8" points="54.34 62.62 53.09 63.44 53.07 64.75 53.93 63.7 54.34 62.62"/><polyline class="cls-9" points="55.35 61.96 54.34 62.62 53.93 63.7 55.35 61.96"/><path class="cls-10" d="M53.07,64.75l-27.78,34,20.2-13.21L53.05,66l0-1.21M95.1,36,74.9,49.17,67.34,68.74l0,1.21L95.1,36"/><path class="cls-11" d="M67.34,68.74,66.47,71l.85-1,0-1.21m-13.41-5-.86,1,0,1.21.88-2.26"/><path class="cls-12" d="M53.05,66,45.49,85.54l7.34-4.81L53.05,66M74.9,49.17,67.57,54l-.23,14.77L74.9,49.17"/><polyline class="cls-13" points="67.57 53.97 55.35 61.96 53.93 63.7 53.05 65.96 52.83 80.73 65.05 72.74 66.47 71 67.34 68.74 67.57 53.97"/><path class="cls-14" d="M98.75,99.17c-.48,5-2.22,8.4-6.23,8.4s-5-2.69-4.06-7.45c.57-2.93,2.08-9.44,2.83-13.26H88.23l.19-1.69c5.14,0,6.17-2.41,8-8.16h1.32c-.62,2.4-1.7,6.08-2.12,8.2l5.09-.14-.24,1.79-5.19,0L92.66,100c-.85,4.39-.38,5.62,1.18,5.62,1.79,0,3.07-2.31,3.49-6.61Z"/><path class="cls-14" d="M126.43,99.17c-.42,3.92-2.22,8.4-6.27,8.4-3.68,0-4.81-2.5-3.44-7.6l1.5-5.75c1.51-5.71.76-7.69-1.46-7.69-3.3,0-6.6,4.2-8.58,14.2L107,106.86s-1.27-.09-1.93-.09-1.89.09-1.89.09c1.51-6.79,4.48-21.46,5.61-28.3.29-1.6.1-2.36-1.74-2.36h-1.7l.14-1.93c1.84.09,5.85.09,7.69,0a37.12,37.12,0,0,1-.66,4.48l-2.55,12.88c2.08-5,5.1-7,8.35-7,4.34,0,5.71,2.68,3.87,9.62l-1.46,5.52c-1,4.1-1,5.89.75,5.89s3-2.69,3.54-6.7Z"/><path class="cls-14" d="M146.81,100.73c-1.51,4.34-3.78,6.84-8.49,6.84-6.65,0-8.78-3.87-7.36-11.46s6-11.46,11.18-11.46c4.9,0,6.08,3,5.51,6.55-1,5.8-7.87,6.51-12.78,6.37-1,6,.33,8.35,3.73,8.35,3.21,0,5.38-1.32,6.6-5.61Zm-2.69-9.1c.56-2.64.14-5.38-2.41-5.38-3,0-5,2.08-6.65,10.23C141,96.58,143.22,95.68,144.12,91.63Z"/><path class="cls-14" d="M106.9,114.88c11.1,0,19.69,7.47,19.74,18.51s-8.5,18.63-19.59,18.67-19.7-7.46-19.74-18.51S95.8,114.93,106.9,114.88Zm0,9.59c-5.23,0-8.61,4-8.59,9s3.43,9,8.66,9,8.6-4,8.58-9S112.16,124.45,106.94,124.47Z"/><path class="cls-14" d="M127.1,115.4l12.34-.05,7.86,24.16L155,115.29l12.34-.05-13.11,36-13.69.05Z"/><path class="cls-14" d="M170.85,115.22l27.27-.11,0,9.06-16.38.06,0,4.2,16-.06,0,9-16,.06v4.58l16.38-.06,0,9.05-27.26.11Z"/><path class="cls-14" d="M219.5,139.44h-3.94l.05,11.53-10.88.05-.15-35.94,19.18-.08c8.41,0,13,5.55,13,12.29a11.57,11.57,0,0,1-6.42,10.91l6.57,12.69-12.39,0Zm2.63-15.37-6.63,0,0,6.3,6.62,0a3.17,3.17,0,1,0,0-6.3Z"/><path class="cls-14" d="M242.73,114.94l10.88,0,.11,26.46,13.63-.06,0,9.49-24.52.09Z"/><path class="cls-14" d="M296.46,146l-13.79.05-1.38,4.64-11.8.05,13.11-36,13.68-.06,13.4,35.89-11.8,0Zm-11-9,8.18,0-4.14-12.65Z"/><path class="cls-14" d="M313.09,114.66l19.18-.08c8.41,0,13,5.55,13,12.29S340.78,139,332.37,139l-8.3,0,.05,11.53-10.88,0Zm17.82,9-6.9,0,0,6.3,6.9,0a3.15,3.15,0,1,0,0-6.3Z"/><path class="cls-2" d="M93.7,198.78H87.44V168.13H93.7c2.9,0,5.57,1.7,5.57,6V193C99.27,197.26,96.6,198.78,93.7,198.78Zm.83-24.67c0-1.06-.41-1.57-1.24-1.57H92.18V194.4h1.11c.83,0,1.24-.5,1.24-1.61Z"/><path class="cls-2" d="M102.86,198.78V168.13h9.94v4.41h-5.2v8.38h3.45v4.19H107.6v9.11h5.2v4.56Z"/><path class="cls-2" d="M121.27,199.24c-3.68,0-5.94-2.3-5.94-6.4v-3.22h4.15v3.59c0,1.1.5,1.84,1.56,1.84s1.52-.69,1.52-1.84c0-2.76-1.1-4.93-2.9-8-1.79-2.85-4.23-7.09-4.23-10.63,0-3.82,2-6.9,6.12-6.9,3.22,0,5.38,2.34,5.38,6.39v3.36h-4.09V173.6c0-1-.56-1.56-1.29-1.56a1.39,1.39,0,0,0-1.43,1.56c0,3.55,1.06,4.79,3,8.19s4,7.09,4,10.68C127.16,197.26,124.26,199.24,121.27,199.24Z"/><path class="cls-2" d="M130.43,198.78V168.13h4.74v30.65Z"/><path class="cls-2" d="M147.87,198.78l-.5-1.61a3.62,3.62,0,0,1-3.36,2.07c-3.22,0-5.29-2.35-5.29-6V173.7a5.91,5.91,0,0,1,5.93-6,5.76,5.76,0,0,1,5.76,6v5.66H146v-5.85a1.14,1.14,0,0,0-1.24-1.24,1.19,1.19,0,0,0-1.29,1.24v20.11a1.25,1.25,0,0,0,1.29,1.34,1.22,1.22,0,0,0,1.28-1.34v-6.26h-1.19v-3.68h5.8v15.1Z"/><path class="cls-2" d="M162.6,198.78l-3.45-13.86-1.06-4.18v18H154V168.13h4.51l3,13.76.92,4.28v-18h4v30.65Z"/><path class="cls-2" d="M183.18,184.79v3.45H180v-3.45h-3.27v-3.27H180v-3.41h3.22v3.41h3.22v3.27Z"/><path class="cls-2" d="M210.29,198.78h-4l-1.66-16.89-1.89,16.89h-3.91l-3.5-30.65H200l1.47,19.33,1.79-19.33h3.55l1.52,19.33,1.74-19.33h4.28Z"/><path class="cls-2" d="M216.78,198.78V168.13h9.94v4.41h-5.2v8.38H225v4.19h-3.45v9.11h5.2v4.56Z"/><path class="cls-2" d="M236.47,198.78h-6.53V168.13h6.53c2.31,0,4.84,1.29,4.84,5.29v6a3.83,3.83,0,0,1-2.26,3.73,3.85,3.85,0,0,1,2.26,3.72v6.58C241.31,197.49,238.78,198.78,236.47,198.78Zm.28-25c0-.92-.28-1.29-.87-1.29h-1.2v8.93h1.2c.59,0,.87-.41.87-1.33Zm0,12.89c0-.92-.28-1.34-.87-1.34h-1.2v9.21h1.2c.59,0,.87-.37.87-1.29Z"/><path class="cls-2" d="M257.55,198.78H251.3V168.13h6.25c2.9,0,5.57,1.7,5.57,6V193C263.12,197.26,260.45,198.78,257.55,198.78Zm.83-24.67c0-1.06-.41-1.57-1.24-1.57H256V194.4h1.1c.83,0,1.24-.5,1.24-1.61Z"/><path class="cls-2" d="M266.71,198.78V168.13h10v4.41h-5.21v8.38h3.46v4.19h-3.46v9.11h5.21v4.56Z"/><path class="cls-2" d="M287.42,198.78h-4.6l-4.09-30.65h4.74l1.79,20,1.89-20h4.42Z"/></g></g></svg>